<svg width="512" height="512" viewBox="0 0 512 512" xmlns="http://www.w3.org/2000/svg">
  <rect width="512" height="512" fill="none"/>
  
  <!-- Soft stars / bubbles -->
  <g fill="white">
    <!-- Small dots -->
    <circle cx="34" cy="58" r="1.2" opacity="0.35"/>
    <circle cx="120" cy="140" r="1.0" opacity="0.28"/>
    <circle cx="260" cy="90" r="1.3" opacity="0.32"/>
    <circle cx="420" cy="60" r="1.1" opacity="0.30"/>
    <circle cx="480" cy="200" r="1.2" opacity="0.33"/>
    <circle cx="300" cy="240" r="1.0" opacity="0.25"/>
    <circle cx="80" cy="300" r="1.1" opacity="0.30"/>
    <circle cx="200" cy="360" r="1.2" opacity="0.34"/>
    <circle cx="350" cy="420" r="1.0" opacity="0.26"/>
    <circle cx="460" cy="480" r="1.1" opacity="0.29"/>

    <!-- Medium dots -->
    <circle cx="90" cy="40" r="2.2" opacity="0.18"/>
    <circle cx="180" cy="200" r="2.0" opacity="0.15"/>
    <circle cx="330" cy="150" r="2.4" opacity="0.20"/>
    <circle cx="450" cy="300" r="2.1" opacity="0.17"/>
    <circle cx="260" cy="430" r="2.3" opacity="0.19"/>

    <!-- Larger soft bubbles -->
    <circle cx="60" cy="220" r="4.5" opacity="0.08"/>
    <circle cx="240" cy="40" r="5.0" opacity="0.06"/>
    <circle cx="400" cy="250" r="4.8" opacity="0.07"/>
    <circle cx="150" cy="450" r="5.2" opacity="0.05"/>
  </g>
</svg>
